<svg xmlns="http://www.w3.org/2000/svg" width="69" height="91" viewBox="0 0 69 91" fill="none">
    <g filter="url(#filter0_d_1113_470)">
        <path d="M31.334 10.9355L9.82191 32.1633C7.14758 34.8046 5.06682 37.8141 3.57311 41.0238C3.22741 41.7665 2.92084 42.5156 2.64036 43.2712C1.36842 46.7004 0.735715 50.317 0.742237 53.927C0.755283 61.7284 3.76227 69.5298 9.76321 75.4906C15.8098 81.4966 23.748 84.4996 31.6862 84.4996C39.6244 84.4996 47.4908 81.5225 53.5309 75.5616C53.6744 75.4196 53.8048 75.2775 53.9418 75.1354L53.844 75.2323L53.7592 75.3162C49.6433 79.2298 44.3403 81.1995 39.0634 81.206H39.0243C36.3173 81.206 33.6104 80.6829 31.073 79.6496C26.5854 78.6357 22.2608 76.2527 18.2297 72.2486C11.4591 65.5258 8.60216 56.394 9.61971 47.5852C9.848 45.5767 10.285 43.5812 10.9243 41.6373C12.1114 38.0079 13.9965 34.5528 16.586 31.4787L16.6578 31.3883C16.8861 31.0977 17.1274 30.8135 17.3557 30.5294C19.8865 27.3843 22.6587 24.349 25.17 21.1393C26.6311 19.2794 28.0008 17.3613 29.1814 15.3206C29.488 14.7846 29.7815 14.2421 30.062 13.6996C30.5251 12.7955 30.9556 11.8784 31.3405 10.9485" fill="url(#paint0_linear_1113_470)"/>
        <path d="M58.1308 38.4668C60.329 43.1295 60.6616 48.4445 59.1353 53.3398C58.1438 56.5042 56.3827 59.4879 53.8388 61.9936C53.6236 62.2067 53.4083 62.4069 53.1865 62.6071L52.9648 62.8009C52.8147 62.93 52.6647 63.0657 52.5147 63.1884C52.4234 63.2659 52.3321 63.3369 52.2407 63.4144C52.1038 63.5242 51.9668 63.634 51.8298 63.7438C51.732 63.8212 51.6276 63.8923 51.5232 63.9698C51.3928 64.0667 51.2558 64.1635 51.1188 64.2604C51.0145 64.3379 50.9036 64.4089 50.7927 64.48C50.6622 64.5704 50.5318 64.6543 50.3948 64.7448C50.2839 64.8158 50.1665 64.8868 50.0556 64.9579C49.9252 65.0354 49.7947 65.1193 49.6643 65.1968C49.5468 65.2679 49.4294 65.3324 49.3055 65.4035C49.175 65.4745 49.0446 65.5456 48.9141 65.6166C48.7902 65.6812 48.6663 65.7458 48.5423 65.8103C48.4184 65.8749 48.288 65.9395 48.1575 65.9976C48.027 66.0557 47.8966 66.1203 47.7661 66.1849C47.6422 66.243 47.5183 66.2947 47.3943 66.3528C47.2574 66.4109 47.1204 66.4691 46.9834 66.5272C46.866 66.5724 46.7486 66.6176 46.6312 66.6628C46.4877 66.7209 46.3376 66.7791 46.1941 66.8307C46.0963 66.8695 45.9919 66.9018 45.8941 66.934C45.7245 66.9922 45.5614 67.0503 45.3918 67.102L45.3266 67.1213C44.6091 67.3474 43.8851 67.5346 43.1611 67.6832L43.0306 67.709C42.8219 67.7542 42.6066 67.7865 42.3979 67.8253L42.2218 67.8576C42.0131 67.8898 41.8109 67.9157 41.6021 67.9415L41.413 67.9673C41.2042 67.9932 40.9955 68.0125 40.7933 68.0319L40.6041 68.0448C40.3954 68.0642 40.1802 68.0771 39.9714 68.0836H39.8018C39.5866 68.103 39.3648 68.1094 39.1496 68.1094H39.0061C38.7778 68.1094 38.5495 68.1094 38.3212 68.103H38.2168C37.9755 68.09 37.7341 68.0771 37.4928 68.0642H37.4537C34.8054 67.8769 32.1898 67.1988 29.7633 66.017L29.6003 65.9395C29.2872 65.7845 28.9806 65.6231 28.6805 65.4551L28.6349 65.4293C28.4001 65.3001 28.1653 65.1581 27.937 65.016C27.937 65.016 27.8587 64.9708 27.8522 64.9643L27.7543 64.8997C26.528 64.0279 25.3996 63.0204 24.3886 61.9097C23.3971 60.8182 22.51 59.6752 21.9295 58.319C21.8577 58.1575 21.7925 57.9896 21.7338 57.8217C21.3294 56.7044 21.1076 55.5032 21.1076 54.2439C21.1076 53.4366 21.2055 52.6552 21.3816 51.8996C21.4338 51.5961 21.4925 51.299 21.5642 51.0149C21.9165 49.691 22.4644 48.4058 23.1297 47.3402L23.6972 46.5394C23.5406 46.7396 23.371 46.9333 23.2145 47.1271L23.1623 47.1917C21.3881 49.3035 20.0901 51.6736 19.2747 54.1599C18.8377 55.4968 18.5377 56.8659 18.3811 58.2415C18.2898 59.0423 18.2441 59.8495 18.2441 60.6568C18.2507 65.9201 20.2597 71.1641 24.2907 75.1617C24.3038 75.1746 24.3233 75.1939 24.3364 75.2069C28.3805 79.198 33.677 81.1935 38.9995 81.2C39.0061 81.2 39.0126 81.2 39.0191 81.2C39.0256 81.2 39.0322 81.2 39.0387 81.2C44.3221 81.2 49.6251 79.2302 53.7344 75.3166C53.7671 75.2908 53.7932 75.2585 53.8192 75.2327C53.8519 75.2004 53.8845 75.1681 53.9171 75.1358C54.7259 74.3027 55.4825 73.4373 56.1805 72.5397C61.0204 66.327 63.1207 58.7064 62.488 51.2603C62.2532 48.9612 61.7118 46.6944 60.9486 44.5116C60.3616 42.8325 59.6571 41.1727 58.7896 39.6163C58.5743 39.2289 58.346 38.8414 58.1112 38.4668" fill="url(#paint1_linear_1113_470)"/>
        <path d="M47.1535 45.0921C45.7446 38.2982 40.3829 32.9057 34.4472 29.625C34.3298 30.0964 34.1928 30.5679 34.0493 31.0393C33.9514 31.3429 33.8471 31.6464 33.7427 31.9499C33.7231 32.0145 33.6971 32.0726 33.6775 32.1372C33.5666 32.4407 33.4492 32.7443 33.3253 33.0478C33.2078 33.3384 33.0774 33.629 32.9469 33.9196C32.9143 33.9907 32.8817 34.0617 32.8491 34.1327C32.7186 34.4169 32.5817 34.6946 32.4382 34.9788C32.4382 34.9788 32.4382 34.9917 32.4316 34.9981C36.3583 39.5446 40.4938 45.0857 41.8635 50.9948C43.0181 55.9546 40.8525 60.7078 36.6127 63.4654C36.5214 63.5235 36.4236 63.5816 36.3257 63.6398C36.2344 63.6914 36.13 63.7431 36.0257 63.7948C43.2855 60.908 48.7646 52.8547 47.16 45.0986L47.1535 45.0921Z" fill="url(#paint2_linear_1113_470)"/>
        <path d="M32.4316 34.973C32.5751 34.6953 32.7121 34.4111 32.8426 34.127C32.7121 34.4111 32.5751 34.6888 32.4316 34.973Z" fill="url(#paint3_linear_1113_470)"/>
        <path d="M32.4316 34.973C32.5751 34.6953 32.7121 34.4111 32.8426 34.127C32.7121 34.4111 32.5751 34.6888 32.4316 34.973Z" fill="url(#paint4_linear_1113_470)"/>
        <path d="M34.0507 31.0391C33.9529 31.3426 33.8485 31.6461 33.7441 31.9497C33.8485 31.6461 33.9529 31.3491 34.0507 31.0391Z" fill="url(#paint5_linear_1113_470)"/>
        <path d="M34.0507 31.0391C33.9529 31.3426 33.8485 31.6461 33.7441 31.9497C33.8485 31.6461 33.9529 31.3491 34.0507 31.0391Z" fill="url(#paint6_linear_1113_470)"/>
        <path d="M31.5511 10.8189L31.525 10.7737L31.512 10.7607L31.3293 10.9416C30.9445 11.8715 30.5205 12.7886 30.0509 13.6927C29.7704 14.2352 29.4769 14.7777 29.1703 15.3137C27.9897 17.348 26.6199 19.2725 25.1588 21.1324C22.641 24.3421 19.8688 27.3774 17.3445 30.5225C17.1162 30.8066 16.8749 31.0908 16.6466 31.3814L16.5748 31.4718C13.9853 34.5459 12.1002 38.0074 10.9131 41.6304C10.2739 43.5743 9.83684 45.5698 9.60854 47.5783C8.59099 56.3871 11.448 65.5189 18.2186 72.2417C22.2496 76.2458 26.5742 78.6288 31.0619 79.6427C28.6158 78.6482 26.3329 77.1693 24.3434 75.206C24.3304 75.1931 24.3108 75.1737 24.2978 75.1608C20.2732 71.1568 18.2577 65.9193 18.2512 60.6559C18.2512 59.8487 18.2969 59.0414 18.3882 58.2406C18.5447 56.8586 18.8448 55.4959 19.2818 54.1591C20.0971 51.6727 21.3886 49.2962 23.1693 47.1908L23.2215 47.1262C23.3781 46.926 23.5411 46.7323 23.7042 46.5385C25.4393 44.3815 27.3374 42.2956 29.0659 40.0998C30.0704 38.8211 31.0097 37.5037 31.8185 36.1087C32.0338 35.7406 32.2295 35.3725 32.4251 34.9979C32.4251 34.9979 32.4251 34.985 32.4317 34.9786C32.5752 34.7009 32.7121 34.4167 32.8426 34.1326C32.8752 34.0615 32.9078 33.9905 32.9404 33.9194C33.0709 33.6288 33.2013 33.3382 33.3188 33.0476C33.4427 32.7441 33.5601 32.4405 33.671 32.137C33.6906 32.0724 33.7166 32.0143 33.7362 31.9497C33.8406 31.6462 33.9449 31.3491 34.0428 31.0391C34.1928 30.5742 34.3233 30.1027 34.4407 29.6248C34.4668 29.5215 34.4929 29.4182 34.5124 29.3148C34.5972 28.9661 34.6755 28.6174 34.7407 28.2622C34.7994 27.9522 34.8516 27.6422 34.8973 27.3387C35.0473 26.3635 35.1386 25.3754 35.1647 24.3938C35.3147 19.6987 34.1211 14.9779 31.538 10.8253L31.5511 10.8189Z" fill="url(#paint7_linear_1113_470)"/>
        <path d="M58.462 39.2562C56.6812 35.1811 53.172 31.6162 49.4932 29.1428C49.4084 29.0847 49.3236 29.033 49.2388 28.9749C45.0707 26.4627 40.1265 24.9063 35.541 24.4219C35.4171 24.409 35.2997 24.4026 35.1757 24.3896C35.1431 25.3777 35.0518 26.3594 34.9083 27.3345C34.8626 27.6445 34.8104 27.9545 34.7517 28.258C34.6865 28.6068 34.6082 28.9555 34.5234 29.3107C34.4974 29.414 34.4778 29.5174 34.4517 29.6207C40.3939 32.9079 45.7556 38.3004 47.158 45.0878C48.7691 52.844 43.2835 60.8972 36.0237 63.784C35.3845 64.0359 34.7387 64.2554 34.0799 64.4233C34.0603 64.4233 34.0408 64.4298 34.0212 64.4363C33.1928 64.6558 32.3253 64.7721 31.4317 64.7721C28.7834 64.7721 26.3635 63.7452 24.5371 62.0532C25.3981 63.0026 26.4548 63.9519 27.7659 64.8883L27.8702 64.9594L27.9485 65.0046C28.1442 65.1273 28.3399 65.2435 28.5486 65.3598L28.6464 65.4179L28.6921 65.4437C28.7769 65.4889 28.8682 65.5341 28.953 65.5858C29.0313 65.631 29.1161 65.6762 29.1944 65.715C29.3313 65.786 29.4618 65.8506 29.5988 65.9216H29.6118L29.7684 66.0056C32.1948 67.1874 34.8104 67.8655 37.4587 68.0463H37.4978C37.7392 68.0657 37.9805 68.0786 38.2218 68.0851H38.3262C38.5545 68.098 38.7828 68.098 39.0111 68.098H39.1546C39.3699 68.098 39.5916 68.0915 39.8069 68.0786H39.9765C40.1852 68.0592 40.4004 68.0463 40.6092 68.0334L40.7983 68.0205C41.0071 68.0011 41.2158 67.9817 41.418 67.9559L41.6072 67.9301C41.8159 67.9042 42.0246 67.8784 42.2268 67.8461L42.4029 67.8138C42.6117 67.7815 42.8269 67.7428 43.0356 67.6976L43.1661 67.6718C43.8966 67.5232 44.6207 67.3359 45.3317 67.1099L45.3969 67.0905C45.5665 67.0389 45.7295 66.9807 45.8991 66.9226C46.0035 66.8903 46.1013 66.8516 46.1992 66.8193C46.3492 66.7676 46.4927 66.7095 46.6427 66.6514C46.7601 66.6062 46.8775 66.561 46.995 66.5158C47.1319 66.4576 47.2689 66.3995 47.4059 66.3414C47.5298 66.2897 47.6538 66.2316 47.7777 66.1735C47.9081 66.1154 48.0386 66.0508 48.1691 65.9862C48.2082 65.9668 48.2473 65.9474 48.293 65.9281C48.3778 65.8829 48.4691 65.8441 48.5539 65.7989C48.6778 65.7343 48.8018 65.6697 48.9257 65.6052C49.0561 65.5341 49.1866 65.4631 49.3171 65.3921C49.4345 65.3275 49.5519 65.2564 49.6758 65.1854C49.8063 65.1079 49.9367 65.0304 50.0672 64.9464C50.1781 64.8754 50.2955 64.8044 50.4064 64.7333C50.5368 64.6494 50.6738 64.559 50.8042 64.4685C50.9086 64.3975 51.0195 64.32 51.1304 64.249C51.2674 64.1521 51.3978 64.0552 51.5348 63.9584C51.6392 63.8809 51.737 63.8098 51.8414 63.7323C51.9783 63.6225 52.1153 63.5127 52.2523 63.403C52.3436 63.3255 52.4349 63.2544 52.5263 63.1769C52.6763 63.0542 52.8263 62.9186 52.9763 62.7894L53.1981 62.5957C53.4199 62.3955 53.6351 62.1888 53.8504 61.9822C56.3942 59.4764 58.1554 56.4928 59.1468 53.3283C60.5688 48.7689 60.3927 43.6412 58.475 39.2497L58.462 39.2562Z" fill="url(#paint8_linear_1113_470)"/>
        <path d="M34.5195 29.316C34.6043 28.9673 34.6826 28.6185 34.7478 28.2634C34.8065 27.9534 34.8587 27.6434 34.9044 27.3398C34.8587 27.6498 34.8065 27.9598 34.7478 28.2634C34.6826 28.6121 34.6043 28.9673 34.5195 29.316Z" fill="url(#paint9_linear_1113_470)"/>
        <path d="M34.5195 29.316C34.6043 28.9673 34.6826 28.6185 34.7478 28.2634C34.8065 27.9534 34.8587 27.6434 34.9044 27.3398C34.8587 27.6498 34.8065 27.9598 34.7478 28.2634C34.6826 28.6121 34.6043 28.9673 34.5195 29.316Z" fill="url(#paint10_linear_1113_470)"/>
        <path d="M34.4473 29.6254C34.4734 29.5221 34.4994 29.4188 34.519 29.3154C34.4929 29.4188 34.4734 29.5221 34.4473 29.6254Z" fill="url(#paint11_linear_1113_470)"/>
        <path d="M34.4473 29.6254C34.4734 29.5221 34.4994 29.4188 34.519 29.3154C34.4929 29.4188 34.4734 29.5221 34.4473 29.6254Z" fill="url(#paint12_linear_1113_470)"/>
        <path d="M34.4473 29.6254C34.4734 29.5221 34.4994 29.4188 34.519 29.3154C34.4929 29.4188 34.4734 29.5221 34.4473 29.6254Z" fill="url(#paint13_linear_1113_470)"/>
    </g>
    <defs>
        <filter id="filter0_d_1113_470" x="0.742188" y="10.7607" width="67.8555" height="79.7393" filterUnits="userSpaceOnUse" color-interpolation-filters="sRGB">
            <feFlood flood-opacity="0" result="BackgroundImageFix"/>
            <feColorMatrix in="SourceAlpha" type="matrix" values="0 0 0 0 0 0 0 0 0 0 0 0 0 0 0 0 0 0 127 0" result="hardAlpha"/>
            <feOffset dx="3" dy="3"/>
            <feGaussianBlur stdDeviation="1.5"/>
            <feComposite in2="hardAlpha" operator="out"/>
            <feColorMatrix type="matrix" values="0 0 0 0 0 0 0 0 0 0 0 0 0 0 0 0 0 0 0.15 0"/>
            <feBlend mode="normal" in2="BackgroundImageFix" result="effect1_dropShadow_1113_470"/>
            <feBlend mode="normal" in="SourceGraphic" in2="effect1_dropShadow_1113_470" result="shape"/>
        </filter>
        <linearGradient id="paint0_linear_1113_470" x1="27.3355" y1="83.602" x2="27.3355" y2="40.7848" gradientUnits="userSpaceOnUse">
            <stop stop-color="#006DBB"/>
            <stop offset="1" stop-color="#00ABEB"/>
        </linearGradient>
        <linearGradient id="paint1_linear_1113_470" x1="30.6569" y1="80.1215" x2="47.4061" y2="41.9532" gradientUnits="userSpaceOnUse">
            <stop stop-color="#67C7F2"/>
            <stop offset="0.14" stop-color="#54C3F1"/>
        </linearGradient>
        <linearGradient id="paint2_linear_1113_470" x1="14.918" y1="46.7066" x2="66.076" y2="46.7066" gradientUnits="userSpaceOnUse">
            <stop stop-color="#00508E"/>
            <stop offset="0.3" stop-color="#014D8A"/>
            <stop offset="0.53" stop-color="#044581"/>
            <stop offset="0.75" stop-color="#0B3870"/>
            <stop offset="0.94" stop-color="#132659"/>
            <stop offset="1" stop-color="#172051"/>
        </linearGradient>
        <linearGradient id="paint3_linear_1113_470" x1="14.9181" y1="34.5532" x2="66.0759" y2="34.5532" gradientUnits="userSpaceOnUse">
            <stop stop-color="#00508E"/>
            <stop offset="0.3" stop-color="#014D8A"/>
            <stop offset="0.53" stop-color="#044581"/>
            <stop offset="0.75" stop-color="#0B3870"/>
            <stop offset="0.94" stop-color="#132659"/>
            <stop offset="1" stop-color="#172051"/>
        </linearGradient>
        <linearGradient id="paint4_linear_1113_470" x1="32.6338" y1="71.0608" x2="32.6338" y2="15.6955" gradientUnits="userSpaceOnUse">
            <stop stop-color="#0095D6"/>
            <stop offset="0.07" stop-color="#099AD9"/>
            <stop offset="0.32" stop-color="#2AACE3"/>
            <stop offset="0.57" stop-color="#41B8EA"/>
            <stop offset="0.8" stop-color="#4FC0EF"/>
            <stop offset="1" stop-color="#54C3F1"/>
        </linearGradient>
        <linearGradient id="paint5_linear_1113_470" x1="14.9194" y1="31.4911" x2="66.0775" y2="31.4911" gradientUnits="userSpaceOnUse">
            <stop stop-color="#00508E"/>
            <stop offset="0.3" stop-color="#014D8A"/>
            <stop offset="0.53" stop-color="#044581"/>
            <stop offset="0.75" stop-color="#0B3870"/>
            <stop offset="0.94" stop-color="#132659"/>
            <stop offset="1" stop-color="#172051"/>
        </linearGradient>
        <linearGradient id="paint6_linear_1113_470" x1="33.8942" y1="71.0598" x2="33.8942" y2="15.6946" gradientUnits="userSpaceOnUse">
            <stop stop-color="#0095D6"/>
            <stop offset="0.07" stop-color="#099AD9"/>
            <stop offset="0.32" stop-color="#2AACE3"/>
            <stop offset="0.57" stop-color="#41B8EA"/>
            <stop offset="0.8" stop-color="#4FC0EF"/>
            <stop offset="1" stop-color="#54C3F1"/>
        </linearGradient>
        <linearGradient id="paint7_linear_1113_470" x1="22.3018" y1="80.0496" x2="22.3018" y2="11.9878" gradientUnits="userSpaceOnUse">
            <stop stop-color="#0095D6"/>
            <stop offset="0.07" stop-color="#099AD9"/>
            <stop offset="0.32" stop-color="#2AACE3"/>
            <stop offset="0.57" stop-color="#41B8EA"/>
            <stop offset="0.8" stop-color="#4FC0EF"/>
            <stop offset="1" stop-color="#54C3F1"/>
        </linearGradient>
        <linearGradient id="paint8_linear_1113_470" x1="39.6569" y1="46.2503" x2="83.1245" y2="46.2503" gradientUnits="userSpaceOnUse">
            <stop stop-color="#1F2C5C"/>
            <stop offset="1" stop-color="#1E3042"/>
        </linearGradient>
        <linearGradient id="paint9_linear_1113_470" x1="34.7152" y1="71.0611" x2="34.7152" y2="15.6959" gradientUnits="userSpaceOnUse">
            <stop stop-color="#0095D6"/>
            <stop offset="0.07" stop-color="#099AD9"/>
            <stop offset="0.32" stop-color="#2AACE3"/>
            <stop offset="0.57" stop-color="#41B8EA"/>
            <stop offset="0.8" stop-color="#4FC0EF"/>
            <stop offset="1" stop-color="#54C3F1"/>
        </linearGradient>
        <linearGradient id="paint10_linear_1113_470" x1="42.4708" y1="28.3279" x2="65.5418" y2="28.3279" gradientUnits="userSpaceOnUse">
            <stop stop-color="#1F2C5C"/>
            <stop offset="1" stop-color="#1E3042"/>
        </linearGradient>
        <linearGradient id="paint11_linear_1113_470" x1="14.9187" y1="29.4704" x2="66.0752" y2="29.4704" gradientUnits="userSpaceOnUse">
            <stop stop-color="#00508E"/>
            <stop offset="0.3" stop-color="#014D8A"/>
            <stop offset="0.53" stop-color="#044581"/>
            <stop offset="0.75" stop-color="#0B3870"/>
            <stop offset="0.94" stop-color="#132659"/>
            <stop offset="1" stop-color="#172051"/>
        </linearGradient>
        <linearGradient id="paint12_linear_1113_470" x1="34.4864" y1="71.0605" x2="34.4864" y2="15.6953" gradientUnits="userSpaceOnUse">
            <stop stop-color="#0095D6"/>
            <stop offset="0.07" stop-color="#099AD9"/>
            <stop offset="0.32" stop-color="#2AACE3"/>
            <stop offset="0.57" stop-color="#41B8EA"/>
            <stop offset="0.8" stop-color="#4FC0EF"/>
            <stop offset="1" stop-color="#54C3F1"/>
        </linearGradient>
        <linearGradient id="paint13_linear_1113_470" x1="42.47" y1="29.4704" x2="65.5403" y2="29.4704" gradientUnits="userSpaceOnUse">
            <stop stop-color="#1F2C5C"/>
            <stop offset="1" stop-color="#1E3042"/>
        </linearGradient>
    </defs>
</svg>
