<svg width="55" height="56" viewBox="0 0 55 56" fill="none" xmlns="http://www.w3.org/2000/svg">
<path d="M27.5 5.45688C34.8425 5.45688 35.7133 5.48438 38.6146 5.61729C46.0671 5.95646 49.5481 9.4925 49.8873 16.89C50.0202 19.789 50.0454 20.6598 50.0454 28.0023C50.0454 35.3471 50.0179 36.2156 49.8873 39.1146C49.5458 46.5052 46.074 50.0481 38.6146 50.3873C35.7133 50.5202 34.8471 50.5477 27.5 50.5477C20.1575 50.5477 19.2867 50.5202 16.3877 50.3873C8.91688 50.0458 5.45417 46.4938 5.115 39.1123C4.98208 36.2133 4.95458 35.3448 4.95458 28C4.95458 20.6575 4.98438 19.789 5.115 16.8877C5.45646 9.4925 8.92833 5.95417 16.3877 5.615C19.289 5.48438 20.1575 5.45688 27.5 5.45688ZM27.5 0.5C20.0315 0.5 19.0965 0.532083 16.1631 0.665C6.17604 1.12333 0.625625 6.66458 0.167292 16.6608C0.0320833 19.5965 0 20.5315 0 28C0 35.4685 0.0320833 36.4058 0.165 39.3392C0.623333 49.3263 6.16458 54.8767 16.1608 55.335C19.0965 55.4679 20.0315 55.5 27.5 55.5C34.9685 55.5 35.9058 55.4679 38.8392 55.335C48.8171 54.8767 54.3813 49.3354 54.8327 39.3392C54.9679 36.4058 55 35.4685 55 28C55 20.5315 54.9679 19.5965 54.835 16.6631C54.3858 6.68521 48.8377 1.12563 38.8415 0.667292C35.9058 0.532083 34.9685 0.5 27.5 0.5ZM27.5 13.8787C19.7015 13.8787 13.3787 20.2015 13.3787 28C13.3787 35.7985 19.7015 42.1235 27.5 42.1235C35.2985 42.1235 41.6213 35.8008 41.6213 28C41.6213 20.2015 35.2985 13.8787 27.5 13.8787ZM27.5 37.1667C22.4377 37.1667 18.3333 33.0646 18.3333 28C18.3333 22.9377 22.4377 18.8333 27.5 18.8333C32.5623 18.8333 36.6667 22.9377 36.6667 28C36.6667 33.0646 32.5623 37.1667 27.5 37.1667ZM42.1804 10.0219C40.3563 10.0219 38.8781 11.5 38.8781 13.3219C38.8781 15.1438 40.3563 16.6219 42.1804 16.6219C44.0023 16.6219 45.4781 15.1438 45.4781 13.3219C45.4781 11.5 44.0023 10.0219 42.1804 10.0219Z" fill="white"/>
</svg>
