<svg xmlns="http://www.w3.org/2000/svg" width="905" height="688" viewBox="0 0 905 688" fill="none">
    <path d="M438.959 659.768C450.326 645.107 455.265 627.104 453.775 609.536C453.227 604.105 451.948 598.757 450.156 593.603C448.951 590.137 447.518 586.723 445.819 583.459C445.798 583.414 445.798 583.378 445.775 583.332C442.264 576.232 438.234 571.215 438.234 571.215L438.224 571.222C433.995 565.785 428.679 561.026 423.196 557.313C422.998 557.179 422.8 557.048 422.601 556.916C412.817 550.992 401.201 547.314 390.418 546.172C390.132 546.142 389.849 546.128 389.564 546.101V546.102C389.914 535.022 387.107 523.878 381.048 514.067L380.994 513.959L380.961 513.922L380.534 514.345C380.534 514.345 380.534 514.345 380.534 514.347L330.003 564.447C323.72 570.682 318.826 577.781 315.317 585.357C314.506 587.103 313.782 588.875 313.119 590.668C310.127 598.768 308.636 607.296 308.652 615.822C308.685 634.24 315.743 652.648 329.846 666.726C344.05 680.906 362.699 688 381.347 688C399.915 688 418.48 680.973 432.672 666.902C433.003 666.573 433.309 666.228 433.638 665.896L433.591 665.941C433.606 665.925 433.622 665.911 433.636 665.896C435.545 663.929 437.319 661.883 438.959 659.768ZM385.2 566.525C385.2 566.523 385.202 566.522 385.202 566.52C385.492 565.81 385.763 565.094 386.026 564.375C386.078 564.229 386.131 564.083 386.183 563.937C386.435 563.226 386.678 562.513 386.904 561.794C386.904 561.792 386.904 561.792 386.906 561.79C387.251 560.687 387.566 559.574 387.844 558.455C401.799 566.21 414.395 578.944 417.7 594.975C420.645 609.254 413.441 623.929 402.053 632.943C404.401 630.462 406.766 624.947 406.766 624.947C408.63 619.763 408.994 614.073 407.666 608.339C404.329 593.915 394.538 580.793 386.026 570.759C385.158 569.73 384.309 568.578 384.309 568.578C384.619 567.899 384.918 567.214 385.2 566.525ZM357.162 611.028C357.288 610.306 357.428 609.606 357.59 608.939C358.42 605.807 359.7 602.786 361.27 600.27L362.603 598.381C366.678 593.291 371.141 588.372 375.202 583.174C377.557 580.159 379.764 577.05 381.669 573.751C382.168 572.886 382.637 572.009 383.088 571.123C383.095 571.107 383.102 571.093 383.109 571.079C383.386 570.538 383.645 569.993 383.902 569.444C383.629 570.022 383.324 570.654 383.109 571.079C383.102 571.095 383.095 571.109 383.088 571.124C392.307 581.861 402.025 594.942 405.251 608.892C407.961 620.609 402.884 631.822 392.911 638.334C392.69 638.478 392.466 638.614 392.242 638.753C392.029 638.877 391.784 639.004 391.544 639.112C390.05 639.709 388.526 640.223 386.976 640.625C386.929 640.637 386.88 640.646 386.831 640.658C384.887 641.177 382.85 641.453 380.751 641.453C374.669 641.453 369.121 639.126 364.862 635.302C364.657 635.084 364.426 634.892 364.227 634.67C361.901 632.093 359.816 629.4 358.455 626.187C358.29 625.799 358.136 625.405 357.991 625.008C357.034 622.375 356.512 619.53 356.518 616.565C356.521 614.661 356.75 612.809 357.162 611.028ZM433.195 666.324C433.218 666.301 433.241 666.279 433.263 666.258L433.195 666.324ZM431.855 664.184L431.673 664.359L431.477 664.545C422.589 673.047 410.936 677.74 398.664 677.754H398.571C386.194 677.742 374.578 672.975 365.915 664.385L365.782 664.249L365.759 664.223C357.085 655.562 352.299 644.019 352.282 631.716C352.278 629.916 352.382 628.091 352.588 626.295C352.884 623.722 353.398 621.161 354.121 618.66C354.304 621.118 354.822 623.525 355.664 625.842C355.821 626.279 355.993 626.713 356.173 627.141C357.797 630.97 360.346 634.053 362.384 636.313C364.86 639.056 367.654 641.547 370.739 643.758L370.818 643.803L371.257 644.091L371.25 644.089C371.826 644.448 372.403 644.796 373.091 645.18C373.845 645.605 374.606 646.005 375.346 646.373L375.727 646.568L375.804 646.472L375.757 646.57C381.708 649.473 388.096 651.179 394.844 651.649C395.432 651.686 396.022 651.714 396.613 651.734L396.872 651.745C397.427 651.761 397.983 651.764 398.553 651.764H398.562L398.909 651.762C399.449 651.759 399.99 651.743 400.539 651.721L400.942 651.701C401.468 651.675 401.993 651.642 402.532 651.599L402.987 651.559C403.495 651.512 404.007 651.463 404.548 651.4L404.984 651.343C405.493 651.278 406.002 651.207 406.558 651.122L406.959 651.052C407.482 650.965 408.007 650.875 408.551 650.765L408.838 650.704C410.638 650.337 412.437 649.867 414.332 649.271C414.656 649.167 414.979 649.055 415.3 648.942L415.571 648.848L415.779 648.777L416.32 648.587C416.647 648.465 416.969 648.338 417.292 648.211L418.3 647.816L419.455 647.315L420.209 646.977L420.969 646.617L421.287 646.463L422.125 646.046L423.021 645.572C423.353 645.398 423.679 645.217 424.001 645.038C424.302 644.865 424.601 644.696 424.874 644.533C425.197 644.341 425.521 644.146 425.903 643.911L426.686 643.415C427.015 643.203 427.341 642.984 427.68 642.755L427.906 642.601L428.454 642.221C428.791 641.986 429.122 641.741 429.463 641.486L429.713 641.3L430.207 640.931C430.548 640.668 430.884 640.397 431.225 640.118L431.454 639.934L431.902 639.566C432.273 639.255 432.641 638.931 432.994 638.618L433.55 638.127C434.093 637.632 434.632 637.124 435.155 636.602C441.188 630.621 445.704 623.205 448.211 615.157C449.376 611.409 450.102 607.585 450.394 603.748C450.806 605.778 451.11 607.78 451.309 609.745C452.793 627.219 447.71 644.449 437.001 658.262C435.405 660.315 433.676 662.306 431.855 664.184Z" fill="url(#paint0_linear_959_4690)"/>
    <path d="M0.511192 116.879H37.8282C37.8282 117.22 37.8282 117.561 37.8282 117.902C37.8282 118.243 37.8282 118.584 37.8282 118.925C37.6578 119.266 37.5726 119.692 37.5726 120.204C37.5726 120.545 37.5726 120.886 37.5726 121.227C37.4022 121.909 37.2318 122.591 37.0614 123.273C37.0614 123.955 37.0614 124.552 37.0614 125.063C37.0614 132.736 38.595 138.533 41.6621 142.454C44.7293 146.376 48.1372 148.422 51.886 148.592C52.0564 148.592 52.1416 148.592 52.1416 148.592C52.312 148.592 52.4823 148.592 52.6527 148.592C52.9935 148.592 53.3343 148.592 53.6751 148.592C54.1863 148.592 54.6123 148.507 54.9531 148.337C58.0203 147.655 60.7466 145.95 63.1322 143.222C65.6881 140.323 66.9661 136.487 66.9661 131.713C66.9661 126.768 65.2621 122.506 61.8542 118.925C58.6166 115.344 54.5271 111.934 49.5856 108.695C47.2 106.99 44.7293 105.37 42.1733 103.836C39.6174 102.301 37.0614 100.596 34.5054 98.7206C26.3264 93.435 18.8289 86.8707 12.013 79.0276C5.19712 71.1845 1.78917 60.6134 1.78917 47.3142C1.78917 47.1437 1.78917 46.9732 1.78917 46.8027C1.95957 46.6323 2.04477 46.3765 2.04477 46.0355C2.04477 45.865 2.04477 45.6945 2.04477 45.524C2.21516 45.3535 2.30036 45.183 2.30036 45.0125C2.30036 44.16 2.30036 43.3075 2.30036 42.4549C2.47076 41.6024 2.55596 40.7499 2.55596 39.8974C4.08953 29.8378 9.28665 20.716 18.1473 12.5319C27.008 4.1773 38.3394 0 52.1416 0C65.9437 0 78.0419 4.1773 88.4362 12.5319C99.0008 20.8865 104.283 34.1004 104.283 52.1736V55.7541H66.9661V50.8948C66.9661 44.9272 65.7733 40.3237 63.3878 37.0841C61.0022 33.8446 58.3611 31.7986 55.4643 30.9461C54.7827 30.7756 54.1863 30.6903 53.6751 30.6903C53.1639 30.5198 52.6527 30.4346 52.1416 30.4346C51.9712 30.4346 51.8008 30.4346 51.6304 30.4346C51.6304 30.4346 51.5452 30.4346 51.3748 30.4346C48.478 30.6051 45.7517 31.8838 43.1957 34.2709C40.8101 36.6579 39.6174 39.6417 39.6174 43.2222C39.6174 48.5078 41.4065 52.9408 44.9849 56.5213C48.7336 59.9314 53.2491 63.1709 58.5314 66.24C60.5762 67.604 62.7062 68.968 64.9213 70.332C67.3069 71.5255 69.6925 72.8043 72.078 74.1683C79.9163 78.7718 87.073 84.7394 93.5481 92.071C100.194 99.2321 103.772 109.462 104.283 122.761V127.109C104.283 147.228 98.8304 161.039 87.925 168.541C77.1899 175.873 64.6657 179.538 50.3524 179.538L44.9849 179.794C30.5011 178.942 19.3401 174.082 11.5018 165.216C3.83394 156.35 0 143.818 0 127.621C0 126.768 0 125.916 0 125.063C0.170397 124.211 0.255596 123.358 0.255596 122.506C0.255596 122.165 0.255596 121.824 0.255596 121.483C0.255596 121.142 0.255596 120.801 0.255596 120.46C0.425993 119.948 0.511192 119.351 0.511192 118.669C0.511192 117.987 0.511192 117.39 0.511192 116.879Z" fill="url(#paint1_linear_959_4690)"/>
    <path d="M197.168 176.214V5.88231H291.994V37.8514H238.064V70.5877H288.416V106.137H238.064V142.454H291.994V176.214H197.168Z" fill="url(#paint2_linear_959_4690)"/>
    <path d="M386.924 176.214V5.88231H446.478C460.621 5.88231 472.038 9.2071 480.728 15.8567C489.418 22.5062 494.189 33.4184 495.041 48.593C495.041 59.5051 493.337 68.5417 489.929 75.7028C486.692 82.8639 481.069 88.2347 473.06 91.8152C479.365 93.5202 484.306 96.163 487.885 99.7436C491.463 103.324 493.252 107.842 493.252 113.298L495.041 154.73C495.041 161.039 495.808 165.301 497.342 167.518C498.875 169.735 500.494 170.843 502.198 170.843V176.214H465.903C460.621 176.214 457.213 175.446 455.679 173.912C454.146 172.207 453.379 168.2 453.379 161.891V126.342C453.379 120.715 452.272 116.538 450.056 113.81C447.841 111.082 443.666 109.718 437.532 109.718H428.075V176.214H386.924ZM428.075 79.5391H437.532C441.451 79.5391 445.03 77.9193 448.267 74.6798C451.675 71.4403 453.379 66.1547 453.379 58.8231V53.9638C451.675 44.0747 448.608 38.3629 444.178 36.8284C439.918 35.1234 434.55 34.2709 428.075 34.2709V79.5391Z" fill="url(#paint3_linear_959_4690)"/>
    <path d="M623.838 176.214L586.265 5.88231H627.416L647.352 122.761L668.822 5.88231H710.229L672.401 176.214H623.838Z" fill="url(#paint4_linear_959_4690)"/>
    <path d="M803.11 176.214V5.88231H897.936V37.8514H844.005V70.5877H894.358V106.137H844.005V142.454H897.936V176.214H803.11Z" fill="url(#paint5_linear_959_4690)"/>
    <path d="M32.5625 431.966V295.394H0.613031V261.635H104.385V295.394H74.2246V431.966H32.5625Z" fill="url(#paint6_linear_959_4690)"/>
    <path d="M395.868 431.966V261.635H437.019V326.34H464.112V261.635H505.774V431.966H464.112V361.89H437.019V431.966H395.868Z" fill="url(#paint7_linear_959_4690)"/>
    <path d="M804.797 431.966V261.635H899.623V293.604H845.693V326.34H896.045V361.89H845.693V398.207H899.623V431.966H804.797Z" fill="url(#paint8_linear_959_4690)"/>
    <path d="M2.64881 687.719V517.388H51.4676C75.4936 517.388 91.6814 521.735 100.031 530.431C108.38 539.127 112.555 552 112.555 569.05C112.555 591.215 106.932 605.537 95.6857 612.016C84.4395 618.495 71.1485 621.735 55.8127 621.735C54.7904 621.735 53.768 621.735 52.7456 621.735C51.7232 621.564 50.786 621.479 49.934 621.479C48.9117 621.479 47.8893 621.479 46.8669 621.479C45.8445 621.309 44.8221 621.223 43.7997 621.223V687.719H2.64881ZM43.7997 591.044C56.4091 591.044 64.077 588.828 66.8034 584.395C69.5297 579.791 70.8929 572.886 70.8929 563.679C70.8929 557.711 69.0185 553.534 65.2698 551.147C61.6915 548.76 56.9203 547.566 50.9564 547.566H43.7997V591.044Z" fill="url(#paint9_linear_959_4690)"/>
    <path d="M172.852 687.719V517.388H267.678V549.357H213.747V582.093H264.099V617.643H213.747V653.96H267.678V687.719H172.852Z" fill="url(#paint10_linear_959_4690)"/>
    <path d="M494.431 687.719V517.388H543.25C567.276 517.388 583.464 521.735 591.813 530.431C600.163 539.127 604.337 552 604.337 569.05C604.337 591.215 598.714 605.537 587.468 612.016C576.222 618.495 562.931 621.735 547.595 621.735C546.573 621.735 545.55 621.735 544.528 621.735C543.506 621.564 542.568 621.479 541.716 621.479C540.694 621.479 539.672 621.479 538.649 621.479C537.627 621.309 536.604 621.223 535.582 621.223V687.719H494.431ZM535.582 591.044C548.192 591.044 555.859 588.828 558.586 584.395C561.312 579.791 562.675 572.886 562.675 563.679C562.675 557.711 560.801 553.534 557.052 551.147C553.474 548.76 548.703 547.566 542.739 547.566H535.582V591.044Z" fill="url(#paint11_linear_959_4690)"/>
    <path d="M662.845 687.719V517.388H703.74V653.96H752.303V687.719H662.845Z" fill="url(#paint12_linear_959_4690)"/>
    <path d="M810.174 687.719V517.388H905V549.357H851.069V582.093H901.422V617.643H851.069V653.96H905V687.719H810.174Z" fill="url(#paint13_linear_959_4690)"/>
    <defs>
        <linearGradient id="paint0_linear_959_4690" x1="452.5" y1="0" x2="452.5" y2="688" gradientUnits="userSpaceOnUse">
            <stop stop-color="white"/>
            <stop offset="1" stop-color="white" stop-opacity="0.3"/>
        </linearGradient>
        <linearGradient id="paint1_linear_959_4690" x1="452.5" y1="0" x2="452.5" y2="688" gradientUnits="userSpaceOnUse">
            <stop stop-color="white"/>
            <stop offset="1" stop-color="white" stop-opacity="0.3"/>
        </linearGradient>
        <linearGradient id="paint2_linear_959_4690" x1="452.5" y1="0" x2="452.5" y2="688" gradientUnits="userSpaceOnUse">
            <stop stop-color="white"/>
            <stop offset="1" stop-color="white" stop-opacity="0.3"/>
        </linearGradient>
        <linearGradient id="paint3_linear_959_4690" x1="452.5" y1="0" x2="452.5" y2="688" gradientUnits="userSpaceOnUse">
            <stop stop-color="white"/>
            <stop offset="1" stop-color="white" stop-opacity="0.3"/>
        </linearGradient>
        <linearGradient id="paint4_linear_959_4690" x1="452.5" y1="0" x2="452.5" y2="688" gradientUnits="userSpaceOnUse">
            <stop stop-color="white"/>
            <stop offset="1" stop-color="white" stop-opacity="0.3"/>
        </linearGradient>
        <linearGradient id="paint5_linear_959_4690" x1="452.5" y1="0" x2="452.5" y2="688" gradientUnits="userSpaceOnUse">
            <stop stop-color="white"/>
            <stop offset="1" stop-color="white" stop-opacity="0.3"/>
        </linearGradient>
        <linearGradient id="paint6_linear_959_4690" x1="452.5" y1="0" x2="452.5" y2="688" gradientUnits="userSpaceOnUse">
            <stop stop-color="white"/>
            <stop offset="1" stop-color="white" stop-opacity="0.3"/>
        </linearGradient>
        <linearGradient id="paint7_linear_959_4690" x1="452.5" y1="0" x2="452.5" y2="688" gradientUnits="userSpaceOnUse">
            <stop stop-color="white"/>
            <stop offset="1" stop-color="white" stop-opacity="0.3"/>
        </linearGradient>
        <linearGradient id="paint8_linear_959_4690" x1="452.5" y1="0" x2="452.5" y2="688" gradientUnits="userSpaceOnUse">
            <stop stop-color="white"/>
            <stop offset="1" stop-color="white" stop-opacity="0.3"/>
        </linearGradient>
        <linearGradient id="paint9_linear_959_4690" x1="452.5" y1="0" x2="452.5" y2="688" gradientUnits="userSpaceOnUse">
            <stop stop-color="white"/>
            <stop offset="1" stop-color="white" stop-opacity="0.3"/>
        </linearGradient>
        <linearGradient id="paint10_linear_959_4690" x1="452.5" y1="0" x2="452.5" y2="688" gradientUnits="userSpaceOnUse">
            <stop stop-color="white"/>
            <stop offset="1" stop-color="white" stop-opacity="0.3"/>
        </linearGradient>
        <linearGradient id="paint11_linear_959_4690" x1="452.5" y1="0" x2="452.5" y2="688" gradientUnits="userSpaceOnUse">
            <stop stop-color="white"/>
            <stop offset="1" stop-color="white" stop-opacity="0.3"/>
        </linearGradient>
        <linearGradient id="paint12_linear_959_4690" x1="452.5" y1="0" x2="452.5" y2="688" gradientUnits="userSpaceOnUse">
            <stop stop-color="white"/>
            <stop offset="1" stop-color="white" stop-opacity="0.3"/>
        </linearGradient>
        <linearGradient id="paint13_linear_959_4690" x1="452.5" y1="0" x2="452.5" y2="688" gradientUnits="userSpaceOnUse">
            <stop stop-color="white"/>
            <stop offset="1" stop-color="white" stop-opacity="0.3"/>
        </linearGradient>
    </defs>
</svg>
