<svg width="479" height="210" viewBox="0 0 479 210" fill="none" xmlns="http://www.w3.org/2000/svg">
<path d="M88.0062 51.3086L57.7506 81.4863C53.9834 85.2438 51.0533 89.5118 48.9604 94.081C48.4765 95.1284 48.0448 96.202 47.6393 97.2756C45.8472 102.159 44.9578 107.291 44.9708 112.423C44.997 123.512 49.2221 134.602 57.6591 143.085C66.1615 151.622 77.3324 155.903 88.4901 155.903C99.6479 155.903 110.714 151.674 119.217 143.203C119.413 143.007 119.596 142.797 119.792 142.601L119.648 142.745L119.531 142.863C113.749 148.427 106.293 151.229 98.8631 151.229H98.8108C95.0043 151.229 91.1978 150.483 87.6268 149.016C81.3219 147.576 75.2395 144.185 69.5625 138.49C60.0397 128.933 56.024 115.958 57.4498 103.429C57.7768 100.575 58.3916 97.7338 59.2811 94.9713C60.9554 89.813 63.5977 84.9034 67.2472 80.5305L67.3518 80.3996C67.6658 79.9938 68.0059 79.5879 68.3329 79.182C71.8908 74.7176 75.7888 70.3971 79.3206 65.8279C81.3743 63.1833 83.2971 60.4601 84.9584 57.5536C85.39 56.7943 85.8086 56.0218 86.201 55.2494C86.8551 53.9663 87.4568 52.6571 87.9931 51.3348" fill="url(#paint0_linear_959_4606)"/>
<path d="M125.692 90.4283C128.779 97.053 129.25 104.62 127.105 111.572C125.718 116.063 123.233 120.305 119.662 123.879C119.361 124.18 119.06 124.468 118.746 124.756L118.432 125.031C118.223 125.214 118.014 125.398 117.804 125.581C117.674 125.686 117.543 125.791 117.412 125.895C117.216 126.052 117.033 126.209 116.837 126.367C116.693 126.471 116.549 126.576 116.405 126.681C116.222 126.825 116.026 126.956 115.842 127.1C115.699 127.204 115.542 127.309 115.385 127.414C115.201 127.545 115.018 127.663 114.822 127.781C114.665 127.885 114.508 127.99 114.338 128.082C114.155 128.199 113.972 128.304 113.789 128.422C113.619 128.527 113.462 128.618 113.292 128.71C113.109 128.815 112.925 128.92 112.742 129.011C112.572 129.103 112.389 129.194 112.219 129.286C112.036 129.378 111.866 129.469 111.683 129.561C111.5 129.653 111.316 129.744 111.133 129.823C110.963 129.901 110.78 129.98 110.61 130.059C110.414 130.137 110.231 130.229 110.035 130.307C109.865 130.373 109.708 130.438 109.538 130.504C109.328 130.582 109.132 130.674 108.923 130.739C108.779 130.792 108.635 130.844 108.491 130.883C108.256 130.962 108.02 131.054 107.785 131.132L107.693 131.158C106.686 131.473 105.666 131.747 104.645 131.957L104.462 131.996C104.161 132.062 103.874 132.101 103.573 132.153L103.324 132.193C103.036 132.232 102.749 132.284 102.448 132.31L102.173 132.35C101.885 132.389 101.585 132.415 101.297 132.441L101.035 132.468C100.734 132.494 100.433 132.507 100.146 132.52H99.8971C99.5962 132.546 99.2823 132.559 98.9815 132.559H98.7722C98.4582 132.559 98.1312 132.559 97.8173 132.559H97.6734C97.3333 132.546 96.9932 132.52 96.6531 132.507H96.6008C92.8728 132.245 89.1971 131.276 85.7831 129.6L85.5476 129.496C85.116 129.273 84.6843 129.05 84.2527 128.802L84.1873 128.762C83.8602 128.579 83.5332 128.37 83.2062 128.173L83.0885 128.108L82.9446 128.016C81.2179 126.772 79.6352 125.345 78.2094 123.761C76.8229 122.216 75.5671 120.593 74.7561 118.655C74.6515 118.42 74.5599 118.184 74.4814 117.948C73.9059 116.364 73.5919 114.649 73.605 112.868C73.605 111.716 73.7489 110.603 73.9844 109.53C74.0628 109.098 74.1413 108.679 74.246 108.273C74.743 106.388 75.5148 104.568 76.4435 103.049L77.2414 101.91C77.0191 102.185 76.7836 102.46 76.5612 102.748L76.4958 102.84C73.9974 105.838 72.1792 109.216 71.0281 112.751C70.4133 114.649 69.9948 116.6 69.7724 118.55C69.6416 119.69 69.5762 120.842 69.5762 121.981C69.5762 129.469 72.4147 136.919 78.0786 142.601C78.1047 142.627 78.1178 142.64 78.144 142.666C83.8341 148.335 91.29 151.176 98.7722 151.176C98.7722 151.176 98.7852 151.176 98.7983 151.176C98.8114 151.176 98.8114 151.176 98.8245 151.176C106.254 151.176 113.71 148.375 119.492 142.81C119.531 142.771 119.57 142.732 119.61 142.693C119.662 142.64 119.701 142.601 119.754 142.549C120.892 141.37 121.951 140.127 122.932 138.857C129.734 130.032 132.69 119.192 131.801 108.6C131.474 105.327 130.702 102.107 129.629 99.0037C128.805 96.6209 127.811 94.2643 126.595 92.0386C126.294 91.4888 125.967 90.9389 125.64 90.4021" fill="url(#paint1_linear_959_4606)"/>
<path d="M110.257 99.8546C108.282 90.2056 100.735 82.5336 92.3893 77.8596C92.2192 78.5273 92.0361 79.2081 91.8268 79.8627C91.696 80.2948 91.5521 80.7268 91.3952 81.1589C91.369 81.2505 91.3298 81.3291 91.3036 81.4207C91.1466 81.8528 90.9897 82.2848 90.8065 82.7169C90.6365 83.1358 90.4533 83.5417 90.2702 83.9606C90.2179 84.0654 90.1787 84.1701 90.1263 84.2617C89.9432 84.6676 89.747 85.0604 89.5508 85.4662C89.5508 85.4662 89.5508 85.4793 89.5508 85.4924C95.0708 91.96 100.892 99.8415 102.815 108.234C104.437 115.29 101.402 122.046 95.424 125.961C95.2932 126.052 95.1624 126.131 95.0185 126.209C94.8877 126.288 94.7438 126.366 94.5999 126.432C104.803 122.321 112.52 110.878 110.257 99.8546Z" fill="url(#paint2_linear_959_4606)"/>
<path d="M90.7922 82.73C90.6221 83.1489 90.439 83.5548 90.2559 83.9737C90.439 83.5679 90.6221 83.1489 90.7922 82.73Z" fill="url(#paint3_linear_959_4606)"/>
<path d="M90.7922 82.73C90.6221 83.1489 90.439 83.5548 90.2559 83.9737C90.439 83.5679 90.6221 83.1489 90.7922 82.73Z" fill="url(#paint4_linear_959_4606)"/>
<path d="M89.5508 85.4664C89.747 85.0737 89.9432 84.6678 90.1263 84.262C89.9432 84.6678 89.747 85.0606 89.5508 85.4664Z" fill="url(#paint5_linear_959_4606)"/>
<path d="M89.5508 85.4664C89.747 85.0737 89.9432 84.6678 90.1263 84.262C89.9432 84.6678 89.747 85.0606 89.5508 85.4664Z" fill="url(#paint6_linear_959_4606)"/>
<path d="M91.29 81.434C91.1331 81.866 90.9761 82.298 90.793 82.7301C90.963 82.298 91.1331 81.866 91.29 81.434Z" fill="url(#paint7_linear_959_4606)"/>
<path d="M91.29 81.434C91.1331 81.866 90.9761 82.298 90.793 82.7301C90.963 82.298 91.1331 81.866 91.29 81.434Z" fill="url(#paint8_linear_959_4606)"/>
<path d="M88.3078 51.1385L88.2816 51.0731V51.0469L88.0069 51.2956C87.4706 52.6179 86.8689 53.9272 86.2149 55.2102C85.8225 55.9827 85.417 56.7551 84.9722 57.5145C83.311 60.4078 81.3881 63.1441 79.3345 65.7888C75.7896 70.358 71.8916 74.6653 68.3467 79.1429C68.0197 79.5487 67.6796 79.9546 67.3657 80.3605L67.261 80.4914C63.6246 84.8642 60.9692 89.7738 59.2949 94.9322C58.4054 97.6946 57.7907 100.536 57.4636 103.39C56.0378 115.919 60.0536 128.894 69.5763 138.451C75.2402 144.146 81.3358 147.537 87.6407 148.977C84.2005 147.563 80.9826 145.455 78.1964 142.667C78.1703 142.64 78.1572 142.627 78.131 142.601C72.4671 136.919 69.6417 129.456 69.6286 121.981C69.6286 120.829 69.694 119.69 69.8248 118.551C70.0472 116.587 70.4658 114.649 71.0806 112.751C72.2317 109.216 74.0499 105.838 76.5483 102.84L76.6137 102.748C76.8361 102.46 77.0715 102.185 77.2939 101.91C79.7269 98.8467 82.4084 95.8879 84.8414 92.7457C86.2541 90.9259 87.5753 89.0537 88.7133 87.0768C89.0141 86.5531 89.2888 86.0294 89.5635 85.4926C89.5635 85.4926 89.5635 85.4795 89.5766 85.4664C89.7728 85.0737 89.969 84.6678 90.1522 84.262C90.2045 84.1572 90.2437 84.0525 90.296 83.9608C90.4792 83.555 90.6623 83.136 90.8324 82.7171C91.0024 82.285 91.1724 81.853 91.3294 81.4209C91.3556 81.3293 91.3948 81.2507 91.421 81.1591C91.5779 80.7271 91.7218 80.295 91.8526 79.863C92.0619 79.1953 92.2451 78.5275 92.4151 77.8598C92.4544 77.7158 92.4805 77.5587 92.5198 77.4147C92.6375 76.9172 92.7421 76.4197 92.8468 75.9222C92.9253 75.4901 93.0037 75.045 93.0691 74.5999C93.2784 73.2121 93.4092 71.8112 93.4485 70.4103C93.6578 63.7333 91.9834 57.03 88.347 51.1123L88.3078 51.1385Z" fill="url(#paint9_linear_959_4606)"/>
<path d="M126.15 91.5542C123.638 85.7675 118.707 80.6877 113.54 77.1789C113.422 77.1004 113.305 77.0218 113.187 76.9433C107.327 73.3822 100.381 71.1565 93.9191 70.4757C93.7491 70.4626 93.579 70.4495 93.409 70.4364C93.3697 71.8373 93.2389 73.2381 93.0296 74.6259C92.9642 75.0711 92.8857 75.5031 92.8073 75.9482C92.7157 76.4458 92.598 76.9433 92.4802 77.4408C92.441 77.5848 92.4149 77.7419 92.3756 77.8859C100.734 82.5598 108.269 90.2188 110.244 99.8809C112.507 110.905 104.789 122.36 94.5862 126.458C93.6967 126.812 92.7811 127.126 91.8524 127.375C91.8262 127.375 91.8001 127.375 91.7608 127.388C90.5966 127.702 89.3801 127.872 88.1244 127.872C84.3964 127.872 80.9954 126.406 78.4316 124.01C79.6481 125.358 81.1263 126.707 82.9706 128.042L83.1145 128.147L83.2322 128.213C83.5069 128.383 83.7816 128.553 84.0825 128.723L84.2133 128.802L84.2787 128.841C84.3964 128.906 84.5272 128.972 84.6449 129.037C84.7627 129.103 84.8673 129.168 84.985 129.221C85.1682 129.325 85.3644 129.417 85.5475 129.509H85.5606L85.783 129.627C89.197 131.302 92.8727 132.271 96.6007 132.533H96.653C96.9931 132.559 97.3332 132.572 97.6733 132.585H97.8172C98.1311 132.598 98.4581 132.598 98.772 132.598H98.9813C99.2822 132.598 99.5961 132.585 99.897 132.572H100.146C100.446 132.546 100.734 132.533 101.035 132.507L101.297 132.481C101.584 132.454 101.885 132.428 102.173 132.389L102.448 132.35C102.735 132.31 103.036 132.271 103.324 132.232L103.573 132.193C103.873 132.14 104.161 132.088 104.462 132.036L104.645 131.996C105.666 131.787 106.686 131.525 107.693 131.198L107.785 131.171C108.02 131.093 108.256 131.014 108.491 130.923C108.635 130.87 108.779 130.831 108.923 130.779C109.132 130.7 109.341 130.622 109.537 130.543C109.707 130.478 109.864 130.412 110.034 130.347C110.231 130.268 110.414 130.176 110.61 130.098C110.78 130.019 110.963 129.941 111.133 129.862C111.316 129.771 111.5 129.692 111.683 129.6C111.735 129.574 111.8 129.548 111.853 129.522C111.97 129.456 112.101 129.404 112.219 129.339C112.389 129.247 112.572 129.155 112.742 129.064C112.925 128.959 113.108 128.867 113.292 128.762C113.462 128.671 113.632 128.566 113.789 128.474C113.972 128.37 114.155 128.252 114.338 128.134C114.495 128.029 114.652 127.938 114.822 127.833C115.005 127.715 115.188 127.584 115.384 127.453C115.541 127.348 115.685 127.244 115.842 127.139C116.038 127.008 116.222 126.864 116.405 126.72C116.549 126.615 116.693 126.511 116.836 126.406C117.033 126.249 117.229 126.092 117.412 125.935C117.543 125.83 117.674 125.725 117.804 125.62C118.014 125.437 118.223 125.254 118.432 125.07L118.746 124.796C119.06 124.507 119.361 124.219 119.662 123.918C123.233 120.357 125.718 116.115 127.105 111.612C129.106 105.131 128.858 97.8385 126.163 91.5935L126.15 91.5542Z" fill="url(#paint10_linear_959_4606)"/>
<path d="M92.4805 77.4276C92.5982 76.9301 92.7028 76.4326 92.8075 75.9351C92.886 75.5031 92.9645 75.0579 93.0299 74.6128C92.9645 75.0579 92.886 75.49 92.8075 75.9351C92.7159 76.4326 92.5982 76.9301 92.4805 77.4276Z" fill="url(#paint11_linear_959_4606)"/>
<path d="M92.4805 77.4276C92.5982 76.9301 92.7028 76.4326 92.8075 75.9351C92.886 75.5031 92.9645 75.0579 93.0299 74.6128C92.9645 75.0579 92.886 75.49 92.8075 75.9351C92.7159 76.4326 92.5982 76.9301 92.4805 77.4276Z" fill="url(#paint12_linear_959_4606)"/>
<path d="M159.047 152.774C158.982 152.708 158.982 152.604 159.047 152.538L160.015 151.53C160.08 151.465 160.185 151.465 160.251 151.53C160.839 152.067 161.781 152.46 162.631 152.473C163.625 152.473 164.135 152.067 164.135 151.517C164.135 151.033 163.848 150.718 162.788 150.614L161.912 150.522C160.264 150.352 159.413 149.501 159.426 148.113C159.426 146.542 160.564 145.547 162.592 145.56C163.861 145.56 164.92 145.992 165.64 146.568C165.718 146.634 165.718 146.738 165.679 146.804L164.855 147.799C164.79 147.877 164.698 147.877 164.619 147.838C164.109 147.485 163.311 147.157 162.5 147.157C161.689 147.157 161.271 147.511 161.271 147.995C161.271 148.466 161.559 148.754 162.605 148.859L163.481 148.951C165.182 149.121 165.993 150.011 165.993 151.347C165.993 152.97 164.803 154.096 162.579 154.083C160.905 154.083 159.767 153.415 159.086 152.787L159.047 152.774Z" fill="#9FA0A0"/>
<path d="M167.459 151.818C167.289 151.294 167.172 150.666 167.185 149.828C167.198 148.99 167.289 148.335 167.459 147.825C167.917 146.411 169.173 145.586 170.795 145.586C172.469 145.586 173.673 146.463 174.13 147.838C174.314 148.414 174.392 148.977 174.392 150.286C174.392 150.391 174.327 150.456 174.209 150.456H169.199C169.134 150.443 169.094 150.469 169.094 150.548C169.094 150.784 169.147 150.993 169.212 151.176C169.474 151.975 170.115 152.407 171.03 152.42C171.946 152.42 172.535 152.093 172.94 151.648C173.019 151.569 173.11 151.543 173.189 151.608L174.183 152.486C174.261 152.551 174.261 152.643 174.196 152.721C173.503 153.533 172.351 154.096 170.847 154.096C169.121 154.096 167.917 153.245 167.459 151.818ZM172.378 148.231C172.155 147.576 171.554 147.183 170.795 147.183C170.023 147.183 169.408 147.563 169.186 148.231C169.121 148.44 169.081 148.636 169.081 148.924C169.081 148.99 169.121 149.029 169.186 149.029H172.378C172.443 149.029 172.482 149.003 172.482 148.938C172.482 148.65 172.443 148.453 172.378 148.244V148.231Z" fill="#9FA0A0"/>
<path d="M176.223 153.926C176.118 153.926 176.053 153.86 176.053 153.756L176.079 145.953C176.079 145.848 176.144 145.782 176.249 145.782H177.806C177.91 145.782 177.976 145.861 177.976 145.953V146.646H177.989C178.381 146.018 179.074 145.599 180.108 145.612C180.749 145.612 181.39 145.874 181.808 146.293C181.887 146.371 181.913 146.45 181.847 146.529L180.945 147.655C180.879 147.733 180.788 147.759 180.709 147.694C180.343 147.458 179.951 147.301 179.506 147.301C178.446 147.301 177.963 148.06 177.963 149.357V153.769C177.949 153.873 177.884 153.939 177.779 153.939H176.223V153.926Z" fill="#9FA0A0"/>
<path d="M185.052 153.952C184.934 153.952 184.869 153.887 184.829 153.782L181.991 145.966C181.952 145.861 182.03 145.796 182.122 145.796H183.77C183.874 145.796 183.94 145.874 183.966 145.966L185.732 151.255H185.771L187.537 145.979C187.576 145.874 187.642 145.809 187.746 145.809H189.368C189.473 145.809 189.538 145.887 189.499 145.979L186.608 153.769C186.569 153.873 186.504 153.939 186.386 153.939H185.039L185.052 153.952Z" fill="#9FA0A0"/>
<path d="M190.467 151.896C190.297 151.373 190.179 150.744 190.192 149.906C190.205 149.069 190.297 148.427 190.467 147.903C190.925 146.489 192.181 145.665 193.803 145.665C195.477 145.665 196.68 146.542 197.138 147.916C197.321 148.492 197.4 149.055 197.4 150.365C197.4 150.469 197.334 150.535 197.217 150.535H192.207C192.141 150.522 192.102 150.548 192.102 150.627C192.102 150.862 192.154 151.072 192.22 151.255C192.482 152.054 193.122 152.486 194.038 152.499C194.954 152.499 195.542 152.171 195.948 151.726C196.026 151.635 196.118 151.622 196.196 151.687L197.191 152.564C197.269 152.63 197.269 152.721 197.204 152.8C196.51 153.612 195.359 154.175 193.855 154.175C192.128 154.175 190.925 153.324 190.467 151.896ZM195.385 148.309C195.163 147.655 194.561 147.262 193.803 147.262C193.031 147.262 192.416 147.641 192.194 148.309C192.128 148.519 192.089 148.715 192.089 149.003C192.089 149.069 192.128 149.108 192.194 149.108H195.385C195.451 149.108 195.49 149.082 195.49 149.016C195.49 148.728 195.451 148.532 195.385 148.322V148.309Z" fill="#9FA0A0"/>
<path d="M205.091 154.122C203.456 154.122 202.828 153.324 202.841 151.739V147.445C202.854 147.38 202.815 147.34 202.749 147.34H202.213C202.108 147.34 202.043 147.275 202.043 147.17V146.044C202.043 145.94 202.121 145.874 202.213 145.874H202.749C202.815 145.874 202.854 145.848 202.854 145.769V143.544C202.854 143.439 202.932 143.374 203.037 143.374H204.594C204.698 143.374 204.764 143.452 204.764 143.544V145.769C204.764 145.835 204.79 145.874 204.855 145.874H205.941C206.046 145.874 206.111 145.94 206.111 146.044V147.17C206.111 147.275 206.033 147.34 205.941 147.34H204.855C204.79 147.34 204.751 147.367 204.751 147.432V151.661C204.738 152.237 204.973 152.42 205.496 152.42H205.915C206.019 152.42 206.085 152.486 206.085 152.59V153.939C206.085 154.044 206.006 154.109 205.915 154.109H205.104L205.091 154.122Z" fill="#9FA0A0"/>
<path d="M212.939 154.044C212.834 154.044 212.769 153.978 212.769 153.874V149.173C212.782 148.126 212.272 147.393 211.252 147.393C210.27 147.393 209.695 148.113 209.695 149.16V153.86C209.682 153.965 209.616 154.031 209.512 154.031H207.955C207.851 154.031 207.785 153.952 207.785 153.86L207.824 142.706C207.824 142.601 207.89 142.536 207.994 142.536H209.551C209.656 142.536 209.721 142.614 209.721 142.706V146.647C210.074 146.136 210.794 145.704 211.866 145.704C213.606 145.704 214.679 147 214.679 148.741V153.874C214.666 153.978 214.6 154.044 214.496 154.044H212.939Z" fill="#9FA0A0"/>
<path d="M216.549 151.975C216.379 151.451 216.261 150.823 216.274 149.985C216.274 149.147 216.379 148.506 216.549 147.982C217.007 146.568 218.263 145.743 219.885 145.743C221.559 145.743 222.762 146.607 223.22 147.995C223.403 148.571 223.482 149.134 223.482 150.443C223.482 150.548 223.416 150.613 223.299 150.613H218.289C218.223 150.6 218.184 150.627 218.184 150.705C218.184 150.941 218.237 151.15 218.302 151.334C218.564 152.132 219.204 152.564 220.12 152.577C221.036 152.59 221.624 152.25 222.03 151.805C222.108 151.713 222.2 151.7 222.278 151.766L223.273 152.643C223.351 152.708 223.351 152.8 223.286 152.878C222.592 153.69 221.441 154.253 219.937 154.253C218.21 154.253 217.007 153.402 216.549 151.975ZM221.467 148.388C221.245 147.733 220.643 147.34 219.885 147.34C219.113 147.34 218.498 147.72 218.276 148.388C218.21 148.597 218.171 148.794 218.171 149.082C218.171 149.147 218.21 149.186 218.276 149.186H221.467C221.533 149.186 221.572 149.16 221.572 149.095C221.572 148.807 221.546 148.61 221.467 148.401V148.388Z" fill="#9FA0A0"/>
<path d="M228.951 157.133C228.847 157.133 228.781 157.068 228.781 156.963L228.82 146.123C228.82 146.018 228.886 145.953 228.991 145.953H230.547C230.652 145.953 230.717 146.031 230.717 146.123V146.725H230.73C231.123 146.162 231.803 145.769 232.889 145.769C234.275 145.769 235.282 146.437 235.701 147.733C235.897 148.362 235.989 148.938 235.976 150.037C235.976 151.137 235.884 151.713 235.688 152.329C235.256 153.625 234.249 154.279 232.862 154.279C231.764 154.279 231.097 153.873 230.704 153.31H230.691V156.963C230.691 157.068 230.613 157.133 230.508 157.133H228.951ZM233.883 151.556C234 151.189 234.053 150.784 234.053 150.037C234.053 149.291 234 148.885 233.883 148.519C233.66 147.838 233.137 147.471 232.378 147.471C231.607 147.471 231.083 147.838 230.861 148.519C230.743 148.885 230.691 149.291 230.691 150.037C230.691 150.784 230.743 151.189 230.861 151.556C231.083 152.237 231.607 152.603 232.378 152.603C233.137 152.603 233.66 152.237 233.883 151.556Z" fill="#9FA0A0"/>
<path d="M237.506 152.041C237.336 151.517 237.218 150.888 237.231 150.05C237.231 149.213 237.336 148.571 237.506 148.047C237.964 146.633 239.22 145.809 240.842 145.809C242.516 145.809 243.719 146.673 244.177 148.06C244.36 148.637 244.439 149.199 244.439 150.509C244.439 150.613 244.373 150.679 244.256 150.679H239.246C239.18 150.666 239.141 150.692 239.141 150.771C239.141 151.006 239.194 151.216 239.259 151.399C239.521 152.198 240.162 152.63 241.077 152.643C241.993 152.656 242.581 152.315 242.987 151.87C243.065 151.779 243.157 151.766 243.235 151.831L244.23 152.708C244.308 152.774 244.308 152.865 244.243 152.944C243.549 153.756 242.398 154.319 240.894 154.319C239.167 154.319 237.964 153.468 237.506 152.041ZM242.424 148.453C242.202 147.799 241.6 147.406 240.842 147.406C240.07 147.406 239.455 147.786 239.233 148.453C239.167 148.663 239.128 148.859 239.128 149.147C239.128 149.213 239.167 149.252 239.233 149.252H242.424C242.49 149.252 242.529 149.226 242.529 149.16C242.529 148.872 242.503 148.663 242.424 148.466V148.453Z" fill="#9FA0A0"/>
<path d="M245.941 152.08C245.758 151.504 245.68 150.967 245.68 150.064C245.68 149.16 245.771 148.624 245.954 148.061C246.412 146.647 247.668 145.822 249.316 145.822C250.951 145.822 252.194 146.66 252.652 148.074C252.835 148.65 252.913 149.186 252.913 150.09C252.913 150.993 252.822 151.53 252.639 152.093C252.181 153.507 250.925 154.332 249.29 154.332C247.642 154.332 246.386 153.494 245.941 152.08ZM250.82 151.582C250.951 151.163 250.99 150.771 250.99 150.077C250.99 149.383 250.964 149.016 250.82 148.571C250.585 147.89 250.062 147.511 249.303 147.498C248.544 147.498 248.008 147.877 247.76 148.558C247.629 149.003 247.589 149.37 247.589 150.064C247.589 150.758 247.616 151.15 247.76 151.569C247.995 152.25 248.531 152.63 249.29 152.643C250.049 152.643 250.572 152.263 250.807 151.582H250.82Z" fill="#9FA0A0"/>
<path d="M254.746 157.212C254.642 157.212 254.576 157.147 254.576 157.042L254.615 146.201C254.615 146.097 254.681 146.031 254.785 146.031H256.342C256.447 146.031 256.512 146.11 256.512 146.201V146.804H256.525C256.918 146.241 257.598 145.848 258.683 145.848C260.07 145.848 261.077 146.516 261.496 147.812C261.692 148.44 261.784 149.016 261.771 150.116C261.771 151.216 261.679 151.792 261.483 152.407C261.051 153.703 260.044 154.358 258.657 154.358C257.559 154.358 256.891 153.952 256.499 153.389H256.486V157.042C256.486 157.147 256.407 157.212 256.303 157.212H254.746ZM259.678 151.635C259.795 151.268 259.848 150.862 259.848 150.116C259.848 149.37 259.795 148.964 259.678 148.597C259.455 147.916 258.932 147.55 258.173 147.55C257.402 147.55 256.878 147.916 256.656 148.597C256.538 148.964 256.486 149.37 256.486 150.116C256.486 150.862 256.538 151.268 256.656 151.635C256.878 152.315 257.402 152.682 258.173 152.682C258.932 152.682 259.455 152.315 259.678 151.635Z" fill="#9FA0A0"/>
<path d="M265.642 154.305C264.059 154.305 263.418 153.533 263.418 151.962L263.444 142.876C263.444 142.771 263.51 142.706 263.614 142.706H265.171C265.275 142.706 265.341 142.784 265.341 142.876L265.315 151.857C265.315 152.42 265.537 152.603 266.021 152.603H266.387C266.492 152.603 266.557 152.669 266.557 152.774V154.122C266.557 154.227 266.479 154.292 266.387 154.292H265.642V154.305Z" fill="#9FA0A0"/>
<path d="M267.879 152.132C267.709 151.608 267.591 150.98 267.605 150.142C267.618 149.304 267.709 148.65 267.879 148.139C268.337 146.725 269.593 145.9 271.215 145.9C272.889 145.9 274.093 146.764 274.55 148.152C274.733 148.728 274.812 149.278 274.812 150.6C274.812 150.705 274.747 150.77 274.629 150.77H269.619C269.554 150.757 269.514 150.784 269.514 150.862C269.514 151.098 269.567 151.307 269.632 151.491C269.894 152.289 270.535 152.721 271.45 152.734C272.366 152.734 272.954 152.407 273.36 151.962C273.452 151.87 273.53 151.857 273.609 151.923L274.603 152.8C274.681 152.865 274.681 152.957 274.616 153.035C273.922 153.847 272.771 154.41 271.267 154.41C269.54 154.41 268.337 153.559 267.879 152.132ZM272.798 148.545C272.575 147.89 271.973 147.497 271.215 147.497C270.443 147.497 269.828 147.877 269.606 148.545C269.54 148.741 269.501 148.951 269.501 149.239C269.501 149.304 269.54 149.343 269.606 149.343H272.798C272.863 149.343 272.902 149.317 272.902 149.252C272.902 148.964 272.876 148.767 272.798 148.558V148.545Z" fill="#9FA0A0"/>
<path d="M279.625 153.153C279.56 153.088 279.56 152.983 279.625 152.918L280.593 151.91C280.659 151.844 280.763 151.844 280.829 151.91C281.417 152.446 282.359 152.839 283.209 152.852C284.203 152.852 284.714 152.446 284.714 151.897C284.714 151.412 284.426 151.098 283.366 150.993L282.49 150.902C280.842 150.731 279.991 149.88 280.005 148.493C280.005 146.921 281.143 145.926 283.17 145.94C284.439 145.94 285.498 146.372 286.218 146.948C286.296 147.013 286.296 147.118 286.257 147.183L285.433 148.178C285.368 148.257 285.276 148.257 285.198 148.218C284.687 147.864 283.876 147.537 283.079 147.537C282.268 147.537 281.849 147.89 281.849 148.375C281.849 148.846 282.137 149.134 283.183 149.239L284.06 149.33C285.76 149.501 286.571 150.391 286.571 151.726C286.571 153.35 285.381 154.476 283.157 154.463C281.483 154.463 280.345 153.795 279.664 153.167L279.625 153.153Z" fill="#9FA0A0"/>
<path d="M293.019 154.292C292.914 154.292 292.849 154.227 292.849 154.122V153.533H292.836C292.443 154.083 291.684 154.476 290.533 154.476C289.042 154.476 287.8 153.69 287.813 151.988C287.813 150.221 289.068 149.409 291.083 149.409H292.731C292.796 149.409 292.836 149.383 292.836 149.317V148.925C292.836 147.995 292.404 147.576 291.03 147.563C290.115 147.563 289.565 147.812 289.173 148.113C289.095 148.178 288.99 148.165 288.938 148.074L288.323 146.961C288.27 146.882 288.284 146.791 288.362 146.738C289.016 146.267 289.919 145.953 291.253 145.953C293.738 145.953 294.641 146.804 294.641 148.807V154.122C294.628 154.227 294.562 154.292 294.458 154.292H293.045H293.019ZM292.822 151.556V150.928C292.822 150.862 292.796 150.823 292.718 150.823H291.371C290.154 150.823 289.618 151.15 289.618 151.91C289.618 152.59 290.102 152.918 291.017 152.931C292.182 152.931 292.822 152.486 292.822 151.556Z" fill="#9FA0A0"/>
<path d="M298.866 154.305C298.748 154.305 298.683 154.24 298.644 154.135L295.805 146.319C295.766 146.214 295.845 146.149 295.936 146.149H297.584C297.689 146.149 297.754 146.227 297.78 146.319L299.546 151.608H299.586L301.351 146.332C301.391 146.227 301.456 146.162 301.561 146.162H303.183C303.287 146.162 303.353 146.241 303.314 146.332L300.423 154.122C300.384 154.227 300.318 154.292 300.2 154.292H298.853L298.866 154.305Z" fill="#9FA0A0"/>
<path d="M304.282 152.25C304.111 151.726 303.994 151.098 304.007 150.26C304.02 149.422 304.111 148.781 304.282 148.257C304.739 146.843 305.995 146.018 307.617 146.018C309.291 146.018 310.495 146.882 310.953 148.27C311.136 148.846 311.214 149.409 311.214 150.718C311.214 150.823 311.149 150.888 311.031 150.888H306.021C305.956 150.875 305.917 150.901 305.917 150.98C305.917 151.216 305.969 151.425 306.034 151.608C306.296 152.407 306.937 152.839 307.853 152.852C308.768 152.852 309.357 152.525 309.762 152.08C309.841 151.988 309.932 151.975 310.011 152.041L311.005 152.918C311.083 152.983 311.083 153.075 311.018 153.153C310.325 153.965 309.174 154.528 307.669 154.528C305.943 154.528 304.739 153.677 304.282 152.25ZM309.2 148.663C308.977 148.008 308.376 147.615 307.617 147.615C306.845 147.615 306.231 147.995 306.008 148.663C305.943 148.872 305.904 149.069 305.904 149.357C305.904 149.422 305.943 149.461 306.008 149.461H309.2C309.265 149.461 309.305 149.435 309.305 149.37C309.305 149.082 309.265 148.872 309.2 148.676V148.663Z" fill="#9FA0A0"/>
<path d="M318.905 154.476C317.27 154.476 316.642 153.677 316.655 152.08V147.786C316.668 147.72 316.629 147.681 316.564 147.681H316.027C315.923 147.681 315.857 147.615 315.857 147.511V146.385C315.857 146.28 315.936 146.214 316.027 146.214H316.564C316.629 146.214 316.668 146.188 316.668 146.11V143.884C316.668 143.779 316.747 143.714 316.852 143.714H318.408C318.513 143.714 318.578 143.792 318.578 143.884V146.11C318.578 146.175 318.604 146.214 318.67 146.214H319.755C319.86 146.214 319.926 146.28 319.926 146.385V147.511C319.926 147.615 319.847 147.681 319.755 147.681H318.67C318.604 147.681 318.565 147.707 318.565 147.786V152.014C318.552 152.59 318.787 152.774 319.311 152.774H319.729C319.834 152.774 319.899 152.839 319.899 152.944V154.292C319.899 154.397 319.821 154.463 319.729 154.463H318.918L318.905 154.476Z" fill="#9FA0A0"/>
<path d="M326.755 154.397C326.651 154.397 326.585 154.332 326.585 154.227V149.527C326.598 148.48 326.088 147.746 325.068 147.746C324.087 147.746 323.511 148.466 323.511 149.514V154.214C323.498 154.319 323.433 154.384 323.328 154.384H321.772C321.667 154.384 321.602 154.306 321.602 154.214L321.641 143.059C321.641 142.955 321.706 142.889 321.811 142.889H323.367C323.472 142.889 323.537 142.968 323.537 143.059V147C323.891 146.49 324.61 146.057 325.683 146.057C327.422 146.057 328.495 147.354 328.495 149.095V154.227C328.482 154.332 328.417 154.397 328.312 154.397H326.755Z" fill="#9FA0A0"/>
<path d="M330.366 152.329C330.195 151.805 330.078 151.176 330.091 150.339C330.091 149.501 330.195 148.846 330.366 148.335C330.823 146.922 332.079 146.097 333.701 146.097C335.375 146.097 336.579 146.961 337.037 148.349C337.22 148.925 337.298 149.488 337.298 150.797C337.298 150.902 337.233 150.967 337.115 150.967H332.105C332.04 150.954 332.001 150.98 332.001 151.059C332.001 151.294 332.053 151.504 332.118 151.687C332.38 152.486 333.021 152.918 333.937 152.931C334.852 152.944 335.441 152.604 335.846 152.158C335.925 152.067 336.016 152.054 336.095 152.119L337.089 152.996C337.167 153.062 337.167 153.153 337.102 153.232C336.409 154.044 335.258 154.607 333.753 154.607C332.027 154.607 330.823 153.756 330.366 152.329ZM335.284 148.741C335.061 148.087 334.46 147.694 333.701 147.694C332.929 147.694 332.315 148.074 332.092 148.741C332.027 148.938 331.988 149.147 331.988 149.435C331.988 149.501 332.027 149.54 332.092 149.54H335.284C335.349 149.54 335.388 149.514 335.388 149.448C335.388 149.16 335.362 148.964 335.284 148.754V148.741Z" fill="#9FA0A0"/>
<path d="M342.766 157.487C342.661 157.487 342.596 157.421 342.596 157.317L342.635 146.476C342.635 146.372 342.7 146.306 342.805 146.306H344.362C344.466 146.306 344.532 146.385 344.532 146.476V147.079H344.545C344.937 146.516 345.617 146.123 346.703 146.123C348.09 146.123 349.097 146.791 349.515 148.087C349.712 148.715 349.803 149.291 349.79 150.391C349.79 151.491 349.698 152.067 349.502 152.682C349.071 153.978 348.063 154.633 346.677 154.633C345.578 154.633 344.911 154.227 344.519 153.664H344.505V157.317C344.505 157.421 344.427 157.487 344.322 157.487H342.766ZM347.697 151.91C347.815 151.543 347.867 151.137 347.867 150.391C347.867 149.645 347.815 149.239 347.697 148.872C347.475 148.191 346.952 147.825 346.193 147.825C345.421 147.825 344.898 148.191 344.676 148.872C344.558 149.239 344.505 149.645 344.505 150.391C344.505 151.137 344.558 151.543 344.676 151.91C344.898 152.59 345.421 152.957 346.193 152.957C346.952 152.957 347.475 152.59 347.697 151.91Z" fill="#9FA0A0"/>
<path d="M351.321 152.394C351.151 151.87 351.033 151.242 351.046 150.404C351.046 149.566 351.151 148.925 351.321 148.401C351.778 146.987 353.034 146.162 354.656 146.162C356.331 146.162 357.534 147.026 357.992 148.414C358.175 148.99 358.253 149.553 358.253 150.862C358.253 150.967 358.188 151.032 358.07 151.032H353.06C352.995 151.019 352.956 151.046 352.956 151.124C352.956 151.36 353.008 151.569 353.073 151.753C353.335 152.551 353.976 152.983 354.892 152.996C355.807 153.009 356.396 152.669 356.801 152.224C356.88 152.132 356.971 152.119 357.05 152.185L358.044 153.062C358.123 153.127 358.123 153.219 358.057 153.297C357.364 154.109 356.213 154.672 354.709 154.672C352.982 154.672 351.778 153.821 351.321 152.394ZM356.239 148.807C356.017 148.152 355.415 147.759 354.656 147.759C353.884 147.759 353.27 148.139 353.047 148.807C352.982 149.016 352.943 149.213 352.943 149.501C352.943 149.566 352.982 149.605 353.047 149.605H356.239C356.304 149.605 356.344 149.579 356.344 149.514C356.344 149.226 356.317 149.029 356.239 148.82V148.807Z" fill="#9FA0A0"/>
<path d="M359.758 152.446C359.575 151.87 359.496 151.333 359.496 150.43C359.496 149.527 359.588 148.99 359.771 148.427C360.229 147.013 361.484 146.188 363.133 146.188C364.768 146.188 366.01 147.026 366.468 148.44C366.651 149.016 366.73 149.553 366.73 150.456C366.73 151.36 366.638 151.896 366.455 152.459C365.997 153.873 364.741 154.698 363.106 154.698C361.458 154.698 360.202 153.86 359.758 152.446ZM364.637 151.949C364.768 151.53 364.807 151.137 364.807 150.443C364.807 149.749 364.781 149.383 364.637 148.938C364.401 148.257 363.878 147.877 363.119 147.864C362.361 147.864 361.824 148.244 361.576 148.925C361.445 149.37 361.406 149.736 361.406 150.43C361.406 151.124 361.432 151.517 361.576 151.936C361.811 152.617 362.348 152.996 363.106 153.009C363.865 153.009 364.388 152.63 364.624 151.949H364.637Z" fill="#9FA0A0"/>
<path d="M368.561 157.566C368.456 157.566 368.391 157.5 368.391 157.395L368.43 146.555C368.43 146.45 368.495 146.385 368.6 146.385H370.157C370.261 146.385 370.327 146.463 370.327 146.555V147.157H370.34C370.732 146.594 371.412 146.201 372.498 146.201C373.884 146.201 374.892 146.869 375.31 148.165C375.507 148.794 375.598 149.37 375.585 150.469C375.585 151.569 375.493 152.145 375.297 152.761C374.866 154.057 373.858 154.711 372.472 154.711C371.373 154.711 370.706 154.306 370.313 153.743H370.3V157.395C370.3 157.5 370.222 157.566 370.117 157.566H368.561ZM373.492 151.988C373.61 151.622 373.662 151.216 373.662 150.469C373.662 149.723 373.61 149.317 373.492 148.951C373.27 148.27 372.746 147.903 371.988 147.903C371.216 147.903 370.693 148.27 370.47 148.951C370.353 149.317 370.3 149.723 370.3 150.469C370.3 151.216 370.353 151.622 370.47 151.988C370.693 152.669 371.216 153.036 371.988 153.036C372.746 153.036 373.27 152.669 373.492 151.988Z" fill="#9FA0A0"/>
<path d="M379.456 154.672C377.873 154.672 377.232 153.9 377.232 152.328L377.259 143.242C377.259 143.138 377.324 143.072 377.429 143.072H378.985C379.09 143.072 379.155 143.151 379.155 143.242L379.129 152.224C379.129 152.787 379.351 152.97 379.835 152.97H380.202C380.306 152.97 380.372 153.035 380.372 153.14V154.489C380.372 154.593 380.293 154.659 380.202 154.659H379.456V154.672Z" fill="#9FA0A0"/>
<path d="M381.694 152.499C381.524 151.975 381.406 151.347 381.419 150.509C381.432 149.671 381.524 149.016 381.694 148.506C382.151 147.092 383.407 146.267 385.029 146.267C386.704 146.267 387.907 147.131 388.365 148.519C388.548 149.095 388.626 149.658 388.626 150.967C388.626 151.072 388.561 151.137 388.443 151.137H383.433C383.368 151.124 383.329 151.15 383.329 151.229C383.329 151.464 383.381 151.674 383.446 151.857C383.708 152.656 384.349 153.088 385.265 153.101C386.18 153.101 386.769 152.774 387.174 152.329C387.266 152.237 387.344 152.224 387.423 152.289L388.417 153.166C388.496 153.232 388.496 153.324 388.43 153.402C387.737 154.214 386.586 154.777 385.082 154.777C383.355 154.777 382.151 153.926 381.694 152.499ZM386.612 148.911C386.39 148.257 385.788 147.864 385.029 147.864C384.257 147.864 383.643 148.244 383.42 148.911C383.355 149.121 383.316 149.317 383.316 149.605C383.316 149.671 383.355 149.71 383.42 149.71H386.612C386.677 149.71 386.717 149.684 386.717 149.618C386.717 149.33 386.69 149.134 386.612 148.925V148.911Z" fill="#9FA0A0"/>
<path d="M164.123 60.8921H158.982V91.6327H172.665V86.7886H164.123V60.8921Z" fill="white"/>
<path d="M189.943 60.8921H184.803V91.6327H189.943V60.8921Z" fill="white"/>
<path d="M202.07 91.6327H207.211V77.9775H214.667V73.2905H207.211V65.6184H215.334V60.8921H202.07V91.6327Z" fill="white"/>
<path d="M224.908 91.6327H237.884V86.7886H230.049V77.9382H237.217V73.2512H230.049V65.6184H237.884V60.8921H224.908V91.6327Z" fill="white"/>
<path d="M209.617 125.45C209.617 130.019 205.915 134.301 201.363 134.301C196.811 134.301 193.109 130.019 193.109 125.45C193.109 118.236 201.363 102.172 201.363 102.172C201.363 102.172 209.617 118.236 209.617 125.45Z" fill="url(#paint13_linear_959_4606)"/>
<path d="M176.589 119.349L173.659 102.277H169.421L166.517 119.349L164.097 102.277H158.982L164.136 133.017H168.348L171.54 114.806L174.732 133.017H178.983L184.097 102.277H178.983L176.589 119.349Z" fill="white"/>
<path d="M235.871 116.05C236.878 114.728 237.388 112.895 237.388 110.577C237.388 107.645 236.643 105.511 235.151 104.201C233.673 102.905 231.319 102.277 227.944 102.277H222.555V133.017H227.695V120.331L233.634 133.017H239.193L232.104 118.315C233.726 117.974 234.994 117.202 235.884 116.05H235.871ZM228.349 115.147H227.695V106.925H228.232C230.22 106.925 231.057 107.344 231.423 107.684C231.947 108.181 232.208 109.15 232.208 110.577C232.208 112.345 231.92 113.562 231.358 114.204C230.809 114.832 229.801 115.147 228.362 115.147H228.349Z" fill="white"/>
<path d="M260.082 116.299C259.938 116.194 259.742 116.037 259.481 115.827C256.734 113.628 255.347 111.756 255.347 110.237C255.347 109.163 255.661 108.325 256.302 107.697C256.956 107.069 257.806 106.754 258.918 106.754C259.559 106.754 260.226 106.872 260.893 107.108C261.587 107.357 262.293 107.736 263.012 108.247L263.928 108.888V103.468L263.627 103.298C262.751 102.814 261.848 102.46 260.959 102.237C260.069 102.015 259.127 101.897 258.159 101.897C255.91 101.897 254 102.709 252.482 104.306C250.965 105.903 250.193 107.906 250.193 110.276C250.193 111.913 250.573 113.405 251.318 114.728C252.051 116.024 253.333 117.425 255.138 118.904L255.87 119.519C258.46 121.64 259.768 123.499 259.768 125.044C259.768 126.079 259.468 126.877 258.866 127.479C258.251 128.082 257.44 128.37 256.38 128.37C255.753 128.37 255.059 128.239 254.327 127.99C253.568 127.728 252.731 127.309 251.828 126.759L250.952 126.209V131.656L251.253 131.826C252.195 132.35 253.123 132.742 254 132.991C254.889 133.253 255.792 133.384 256.668 133.384C259.075 133.384 261.076 132.585 262.62 131.014C264.163 129.443 264.948 127.427 264.948 125.005C264.948 123.29 264.569 121.745 263.823 120.41C263.091 119.087 261.835 117.713 260.069 116.285L260.082 116.299Z" fill="white"/>
<path d="M287.879 113.523H281.914V102.277H276.773V133.017H281.914V118.407H287.879V133.017H293.02V102.277H287.879V113.523Z" fill="white"/>
<path d="M310.299 102.277H305.158V133.017H310.299V102.277Z" fill="white"/>
<path d="M335.02 104.07C334.223 103.429 333.268 102.958 332.195 102.683C331.149 102.408 329.723 102.277 327.865 102.277H322.424V133.017H327.565V120.03C327.721 120.03 327.905 120.03 328.14 120.03C331.292 120.03 333.739 119.271 335.413 117.778C337.113 116.259 337.964 114.047 337.964 111.193C337.964 109.713 337.702 108.325 337.205 107.108C336.695 105.864 335.949 104.843 335.02 104.084V104.07ZM331.868 114.322C331.227 114.95 330.089 115.264 328.467 115.264H327.565V106.925H328.179C329.893 106.925 331.122 107.239 331.803 107.867C332.47 108.483 332.823 109.543 332.823 111.022C332.823 112.58 332.496 113.693 331.868 114.322Z" fill="white"/>
<path d="M347.043 133.017H360.019V128.173H352.184V119.323H359.352V114.636H352.184V107.003H360.019V102.277H347.043V133.017Z" fill="white"/>
<path d="M381.693 118.315C383.315 117.974 384.584 117.202 385.474 116.05C386.481 114.728 386.991 112.895 386.991 110.577C386.991 107.645 386.245 105.511 384.754 104.201C383.276 102.905 380.922 102.277 377.547 102.277H372.145V133.017H377.285V120.331L383.224 133.017H388.783L381.693 118.315ZM377.939 115.147H377.285V106.925H377.822C379.81 106.925 380.647 107.344 381.013 107.684C381.536 108.181 381.798 109.163 381.798 110.577C381.798 112.345 381.51 113.562 380.935 114.204C380.385 114.832 379.378 115.147 377.939 115.147Z" fill="white"/>
<defs>
<linearGradient id="paint0_linear_959_4606" x1="82.3815" y1="154.607" x2="82.3815" y2="93.7275" gradientUnits="userSpaceOnUse">
<stop stop-color="#006DBB"/>
<stop offset="1" stop-color="#00ABEB"/>
</linearGradient>
<linearGradient id="paint1_linear_959_4606" x1="87.0519" y1="149.658" x2="111.038" y2="95.5893" gradientUnits="userSpaceOnUse">
<stop stop-color="#67C7F2"/>
<stop offset="0.14" stop-color="#54C3F1"/>
</linearGradient>
<linearGradient id="paint2_linear_959_4606" x1="64.9199" y1="102.159" x2="136.863" y2="102.159" gradientUnits="userSpaceOnUse">
<stop stop-color="#00508E"/>
<stop offset="0.3" stop-color="#014D8A"/>
<stop offset="0.53" stop-color="#044581"/>
<stop offset="0.75" stop-color="#0B3870"/>
<stop offset="0.94" stop-color="#132659"/>
<stop offset="1" stop-color="#172051"/>
</linearGradient>
<linearGradient id="paint3_linear_959_4606" x1="64.9184" y1="83.3453" x2="136.863" y2="83.3453" gradientUnits="userSpaceOnUse">
<stop stop-color="#00508E"/>
<stop offset="0.3" stop-color="#014D8A"/>
<stop offset="0.53" stop-color="#044581"/>
<stop offset="0.75" stop-color="#0B3870"/>
<stop offset="0.94" stop-color="#132659"/>
<stop offset="1" stop-color="#172051"/>
</linearGradient>
<linearGradient id="paint4_linear_959_4606" x1="90.5306" y1="136.775" x2="90.5306" y2="58.0641" gradientUnits="userSpaceOnUse">
<stop stop-color="#0095D6"/>
<stop offset="0.07" stop-color="#099AD9"/>
<stop offset="0.32" stop-color="#2AACE3"/>
<stop offset="0.57" stop-color="#41B8EA"/>
<stop offset="0.8" stop-color="#4FC0EF"/>
<stop offset="1" stop-color="#54C3F1"/>
</linearGradient>
<linearGradient id="paint5_linear_959_4606" x1="64.9198" y1="84.8642" x2="136.864" y2="84.8642" gradientUnits="userSpaceOnUse">
<stop stop-color="#00508E"/>
<stop offset="0.3" stop-color="#014D8A"/>
<stop offset="0.53" stop-color="#044581"/>
<stop offset="0.75" stop-color="#0B3870"/>
<stop offset="0.94" stop-color="#132659"/>
<stop offset="1" stop-color="#172051"/>
</linearGradient>
<linearGradient id="paint6_linear_959_4606" x1="89.8386" y1="136.775" x2="89.8386" y2="58.0644" gradientUnits="userSpaceOnUse">
<stop stop-color="#0095D6"/>
<stop offset="0.07" stop-color="#099AD9"/>
<stop offset="0.32" stop-color="#2AACE3"/>
<stop offset="0.57" stop-color="#41B8EA"/>
<stop offset="0.8" stop-color="#4FC0EF"/>
<stop offset="1" stop-color="#54C3F1"/>
</linearGradient>
<linearGradient id="paint7_linear_959_4606" x1="64.9196" y1="82.0755" x2="136.863" y2="82.0755" gradientUnits="userSpaceOnUse">
<stop stop-color="#00508E"/>
<stop offset="0.3" stop-color="#014D8A"/>
<stop offset="0.53" stop-color="#044581"/>
<stop offset="0.75" stop-color="#0B3870"/>
<stop offset="0.94" stop-color="#132659"/>
<stop offset="1" stop-color="#172051"/>
</linearGradient>
<linearGradient id="paint8_linear_959_4606" x1="91.0415" y1="136.775" x2="91.0415" y2="58.0643" gradientUnits="userSpaceOnUse">
<stop stop-color="#0095D6"/>
<stop offset="0.07" stop-color="#099AD9"/>
<stop offset="0.32" stop-color="#2AACE3"/>
<stop offset="0.57" stop-color="#41B8EA"/>
<stop offset="0.8" stop-color="#4FC0EF"/>
<stop offset="1" stop-color="#54C3F1"/>
</linearGradient>
<linearGradient id="paint9_linear_959_4606" x1="75.2925" y1="149.553" x2="75.2925" y2="52.8012" gradientUnits="userSpaceOnUse">
<stop stop-color="#0095D6"/>
<stop offset="0.07" stop-color="#099AD9"/>
<stop offset="0.32" stop-color="#2AACE3"/>
<stop offset="0.57" stop-color="#41B8EA"/>
<stop offset="0.8" stop-color="#4FC0EF"/>
<stop offset="1" stop-color="#54C3F1"/>
</linearGradient>
<linearGradient id="paint10_linear_959_4606" x1="99.7008" y1="101.504" x2="160.84" y2="101.504" gradientUnits="userSpaceOnUse">
<stop stop-color="#1F2C5C"/>
<stop offset="1" stop-color="#1E3042"/>
</linearGradient>
<linearGradient id="paint11_linear_959_4606" x1="92.7552" y1="136.775" x2="92.7552" y2="58.0642" gradientUnits="userSpaceOnUse">
<stop stop-color="#0095D6"/>
<stop offset="0.07" stop-color="#099AD9"/>
<stop offset="0.32" stop-color="#2AACE3"/>
<stop offset="0.57" stop-color="#41B8EA"/>
<stop offset="0.8" stop-color="#4FC0EF"/>
<stop offset="1" stop-color="#54C3F1"/>
</linearGradient>
<linearGradient id="paint12_linear_959_4606" x1="103.665" y1="76.0137" x2="136.105" y2="76.0137" gradientUnits="userSpaceOnUse">
<stop stop-color="#1F2C5C"/>
<stop offset="1" stop-color="#1E3042"/>
</linearGradient>
<linearGradient id="paint13_linear_959_4606" x1="201.363" y1="131.276" x2="201.363" y2="97.2232" gradientUnits="userSpaceOnUse">
<stop stop-color="#187FC4"/>
<stop offset="0.09" stop-color="#0F92D2"/>
<stop offset="0.2" stop-color="#08A3DF"/>
<stop offset="0.33" stop-color="#03B0E8"/>
<stop offset="0.52" stop-color="#00B7ED"/>
<stop offset="1" stop-color="#00B9EF"/>
</linearGradient>
</defs>
</svg>
